<?xml version="1.0" encoding="utf-8"?>
<!-- Generator: Adobe Illustrator 26.3.1, SVG Export Plug-In . SVG Version: 6.00 Build 0)  -->
<svg version="1.1" id="Layer_1" xmlns="http://www.w3.org/2000/svg" xmlns:xlink="http://www.w3.org/1999/xlink" x="0px" y="0px"
	 viewBox="0 0 592.3 248.2" style="enable-background:new 0 0 592.3 248.2;" xml:space="preserve">
<style type="text/css">
	.st0{fill:#212121;}
	.st1{fill:#F8FAFC;}
	.st2{clip-path:url(#SVGID_00000026152584870539715410000017180397858792048267_);}
	.st3{clip-path:url(#SVGID_00000125599405083814381560000006871568777453236365_);}
	.st4{fill:none;}
	.st5{fill:#0369A1;}
	.st6{fill:url(#SVGID_00000082333049226081451250000015396452241473700244_);}
	.st7{fill:url(#SVGID_00000117658127093660217220000016169448910241354142_);}
	.st8{fill:url(#SVGID_00000119116475481948361940000014263459019020483766_);}
	.st9{fill:url(#SVGID_00000132078374032911258560000001184817462445810071_);}
	.st10{fill:url(#SVGID_00000105419280678410199430000006015760393715639485_);}
	.st11{fill:url(#SVGID_00000080198454970375213480000000772502080078149278_);}
	.st12{fill:url(#SVGID_00000083788532826636390960000002884434076729247113_);}
	.st13{fill:url(#SVGID_00000104691600972962966580000014291137879436329094_);}
</style>
<g>
	<path class="st0" d="M207.3,139.2V83.8h23.3c3.7,0,6.8,0.6,9.4,1.9c2.6,1.2,4.6,3,6,5.4c1.4,2.3,2.2,5.1,2.2,8.3
		c0,2.5-0.7,4.9-2.1,7.1c-1.3,2.2-3.5,4-6.5,5.4v-4.7c2.7,1,4.9,2.3,6.5,3.9c1.6,1.5,2.7,3.2,3.3,5.1c0.6,1.9,1,3.9,1,5.9
		c0,5.3-1.8,9.5-5.3,12.5c-3.5,3-8.3,4.5-14.5,4.5H207.3z M217.4,130.3h14.3c2.6,0,4.7-0.7,6.2-2.2c1.6-1.5,2.4-3.4,2.4-5.9
		c0-2.4-0.8-4.4-2.4-5.9c-1.5-1.5-3.6-2.2-6.2-2.2h-14.3V130.3z M217.4,105.3h13.7c2.1,0,3.7-0.6,5-1.8c1.2-1.2,1.9-2.8,1.9-4.8
		c0-1.9-0.6-3.5-1.9-4.6c-1.2-1.1-2.9-1.7-5-1.7h-13.7V105.3z M266.1,139.2V83.8h10.1v55.4H266.1z M321.6,140.1
		c-4.1,0-7.9-0.7-11.4-2.2c-3.5-1.4-6.6-3.4-9.2-6c-2.6-2.6-4.7-5.6-6.2-9.1c-1.4-3.5-2.2-7.3-2.2-11.4c0-4.1,0.7-7.9,2.2-11.4
		c1.4-3.5,3.5-6.5,6.1-9.1c2.6-2.6,5.7-4.6,9.2-5.9c3.5-1.4,7.3-2.2,11.4-2.2s7.9,0.7,11.4,2.2c3.5,1.4,6.6,3.4,9.2,6
		c2.6,2.5,4.7,5.5,6.1,9c1.5,3.5,2.2,7.3,2.2,11.4c0,4.1-0.7,7.9-2.2,11.4c-1.5,3.5-3.5,6.5-6.2,9.1c-2.6,2.6-5.7,4.6-9.2,6
		C329.5,139.4,325.7,140.1,321.6,140.1z M321.6,130.9c2.7,0,5.2-0.5,7.5-1.4c2.3-1,4.3-2.4,5.9-4.1c1.7-1.7,3-3.8,3.9-6.2
		c0.9-2.4,1.4-5,1.4-7.7c0-2.8-0.5-5.3-1.4-7.7c-0.9-2.4-2.2-4.4-3.9-6.2c-1.7-1.8-3.7-3.1-5.9-4.1c-2.3-0.9-4.8-1.4-7.5-1.4
		c-2.7,0-5.2,0.5-7.4,1.4c-2.3,0.9-4.3,2.3-6,4.1c-1.7,1.7-3,3.8-3.9,6.2c-0.9,2.3-1.4,4.9-1.4,7.7c0,2.8,0.5,5.4,1.4,7.7
		c0.9,2.4,2.3,4.4,3.9,6.2c1.7,1.7,3.7,3.1,6,4.1C316.4,130.4,318.9,130.9,321.6,130.9z M367,139.2V83.8h7.9l30.5,41l-4.1,0.8V83.8
		h10.1v55.4h-8l-30-41.3l3.7-0.8v42.1H367z M429.5,139.2V83.8h10.1v55.4H429.5z M485,140.1c-4.1,0-7.9-0.7-11.4-2.2
		c-3.5-1.4-6.6-3.4-9.2-6c-2.6-2.6-4.7-5.6-6.2-9.1c-1.4-3.5-2.2-7.3-2.2-11.4c0-4.1,0.7-7.9,2.2-11.4c1.4-3.5,3.5-6.5,6.1-9.1
		c2.6-2.6,5.7-4.6,9.2-5.9c3.5-1.4,7.3-2.2,11.4-2.2s7.9,0.7,11.4,2.2c3.5,1.4,6.6,3.4,9.2,6c2.6,2.5,4.7,5.5,6.1,9
		c1.5,3.5,2.2,7.3,2.2,11.4c0,4.1-0.7,7.9-2.2,11.4c-1.5,3.5-3.5,6.5-6.2,9.1c-2.6,2.6-5.7,4.6-9.2,6
		C492.9,139.4,489.1,140.1,485,140.1z M485,130.9c2.7,0,5.2-0.5,7.5-1.4c2.3-1,4.3-2.4,5.9-4.1c1.7-1.7,3-3.8,3.9-6.2
		c0.9-2.4,1.4-5,1.4-7.7c0-2.8-0.5-5.3-1.4-7.7c-0.9-2.4-2.2-4.4-3.9-6.2c-1.7-1.8-3.7-3.1-5.9-4.1c-2.3-0.9-4.8-1.4-7.5-1.4
		c-2.7,0-5.2,0.5-7.4,1.4c-2.3,0.9-4.3,2.3-6,4.1c-1.7,1.7-3,3.8-3.9,6.2c-0.9,2.3-1.4,4.9-1.4,7.7c0,2.8,0.5,5.4,1.4,7.7
		c0.9,2.4,2.3,4.4,3.9,6.2c1.7,1.7,3.7,3.1,6,4.1C479.8,130.4,482.3,130.9,485,130.9z M497.7,145.9L480.5,117h10.6l17.5,28.8H497.7z
		 M523.6,139.2l19.1-55.4h13.1l19.1,55.4h-11l-3.9-11.9h-21.4l-4,11.9H523.6z M541.4,118.4H557l-9.2-27.6h2.8L541.4,118.4z"/>
	<path class="st0" d="M205,181.5v-1.9h4.3c1.1,0,2.1-0.2,3-0.7c0.9-0.5,1.5-1.2,2-2.1c0.5-0.9,0.7-1.9,0.7-3c0-1.1-0.2-2.1-0.7-3
		c-0.5-0.9-1.2-1.6-2-2.1c-0.9-0.5-1.9-0.7-3-0.7H205V166h4.3c1.1,0,2.2,0.2,3.1,0.6c1,0.4,1.8,0.9,2.5,1.6c0.7,0.7,1.3,1.5,1.6,2.5
		c0.4,0.9,0.6,2,0.6,3.1c0,1.1-0.2,2.1-0.6,3.1c-0.4,0.9-0.9,1.8-1.6,2.5c-0.7,0.7-1.5,1.2-2.5,1.6c-1,0.4-2,0.6-3.1,0.6H205z
		 M203.6,181.5V166h2.1v15.5H203.6z M224.6,181.7c-1.1,0-2-0.2-2.9-0.7c-0.8-0.5-1.5-1.2-2-2c-0.5-0.8-0.7-1.8-0.7-2.8
		c0-1,0.2-2,0.7-2.8c0.5-0.8,1.1-1.5,2-2c0.8-0.5,1.8-0.7,2.8-0.7c1,0,1.8,0.2,2.6,0.7c0.8,0.4,1.3,1.1,1.8,1.9
		c0.4,0.8,0.6,1.7,0.6,2.7c0,0.1,0,0.3,0,0.5c0,0.2,0,0.4-0.1,0.6h-8.9v-1.7h7.9l-0.7,0.6c0-0.7-0.1-1.3-0.4-1.8
		c-0.3-0.5-0.6-0.9-1.1-1.2c-0.5-0.3-1-0.4-1.7-0.4c-0.7,0-1.3,0.1-1.8,0.4c-0.5,0.3-0.9,0.7-1.2,1.2c-0.3,0.5-0.4,1.2-0.4,1.9
		c0,0.7,0.1,1.4,0.4,2c0.3,0.5,0.7,1,1.3,1.3c0.5,0.3,1.2,0.4,1.9,0.4c0.6,0,1.1-0.1,1.6-0.3c0.5-0.2,0.9-0.5,1.3-0.9l1.3,1.3
		c-0.5,0.6-1.1,1-1.9,1.4C226.3,181.6,225.5,181.7,224.6,181.7z M231.7,181.5v-10.6h2v10.6H231.7z M238.9,181.5v-6.4
		c0-0.8-0.2-1.4-0.7-1.9c-0.5-0.5-1.1-0.7-1.8-0.7c-0.5,0-0.9,0.1-1.3,0.3c-0.4,0.2-0.7,0.5-0.9,0.9c-0.2,0.4-0.4,0.8-0.4,1.3
		l-0.8-0.4c0-0.8,0.2-1.5,0.5-2.1c0.4-0.6,0.8-1.1,1.4-1.4c0.6-0.3,1.3-0.5,2.1-0.5c0.7,0,1.4,0.2,2,0.5c0.6,0.3,1.1,0.8,1.4,1.4
		c0.4,0.6,0.5,1.3,0.5,2.1v6.8H238.9z M246,181.5v-6.4c0-0.8-0.2-1.4-0.7-1.9c-0.5-0.5-1.1-0.7-1.8-0.7c-0.5,0-0.9,0.1-1.3,0.3
		c-0.4,0.2-0.7,0.5-0.9,0.9c-0.2,0.4-0.4,0.8-0.4,1.3l-1.1-0.4c0-0.8,0.3-1.5,0.6-2.1c0.4-0.6,0.9-1.1,1.5-1.4
		c0.6-0.3,1.3-0.5,2.1-0.5c0.8,0,1.5,0.2,2.1,0.5c0.6,0.3,1.1,0.8,1.4,1.4c0.4,0.6,0.6,1.3,0.6,2.1v6.8H246z M255.6,181.7
		c-1,0-2-0.2-2.8-0.7c-0.8-0.5-1.5-1.2-2-2c-0.5-0.8-0.7-1.8-0.7-2.8c0-1,0.2-1.9,0.7-2.8c0.5-0.8,1.2-1.5,2-2
		c0.8-0.5,1.8-0.7,2.8-0.7c1,0,2,0.2,2.8,0.7c0.8,0.5,1.5,1.1,2,2c0.5,0.8,0.7,1.8,0.7,2.8c0,1-0.2,2-0.7,2.8c-0.5,0.8-1.2,1.5-2,2
		C257.6,181.5,256.6,181.7,255.6,181.7z M255.6,179.8c0.7,0,1.3-0.2,1.8-0.5c0.5-0.3,0.9-0.7,1.2-1.3c0.3-0.5,0.4-1.2,0.4-1.9
		c0-0.7-0.2-1.3-0.5-1.8c-0.3-0.5-0.7-1-1.2-1.2c-0.5-0.3-1.1-0.5-1.8-0.5s-1.3,0.2-1.8,0.5c-0.5,0.3-0.9,0.7-1.2,1.2
		c-0.3,0.5-0.4,1.1-0.4,1.8c0,0.7,0.1,1.3,0.4,1.9c0.3,0.5,0.7,1,1.2,1.3C254.3,179.6,254.9,179.8,255.6,179.8z M268.2,181.7
		c-1,0-2-0.2-2.8-0.7c-0.8-0.5-1.5-1.2-2-2c-0.5-0.8-0.7-1.8-0.7-2.8c0-1,0.2-2,0.7-2.8c0.5-0.8,1.2-1.5,2-2
		c0.8-0.5,1.8-0.7,2.8-0.7c0.8,0,1.6,0.2,2.3,0.5c0.7,0.3,1.3,0.7,1.8,1.3l-1.3,1.3c-0.3-0.4-0.7-0.7-1.2-0.9
		c-0.5-0.2-1-0.3-1.5-0.3c-0.7,0-1.3,0.2-1.8,0.5c-0.5,0.3-0.9,0.7-1.2,1.2c-0.3,0.5-0.4,1.2-0.4,1.9c0,0.7,0.1,1.3,0.4,1.9
		c0.3,0.5,0.7,1,1.2,1.3c0.5,0.3,1.1,0.5,1.8,0.5c0.6,0,1.1-0.1,1.5-0.3c0.5-0.2,0.9-0.5,1.2-0.9l1.3,1.3c-0.5,0.6-1.1,1-1.8,1.3
		C269.8,181.6,269,181.7,268.2,181.7z M274.3,181.5v-10.6h2v10.6H274.3z M276.3,175.4l-0.8-0.3c0-1.4,0.3-2.4,0.9-3.2
		c0.6-0.8,1.5-1.2,2.7-1.2c0.5,0,1,0.1,1.4,0.3c0.4,0.2,0.8,0.5,1.2,0.9l-1.3,1.4c-0.2-0.2-0.5-0.4-0.7-0.5
		c-0.3-0.1-0.6-0.2-0.9-0.2c-0.7,0-1.4,0.2-1.8,0.7C276.5,173.8,276.3,174.5,276.3,175.4z M287.4,181.7c-1,0-1.8-0.2-2.6-0.7
		c-0.8-0.5-1.4-1.2-1.9-2c-0.4-0.8-0.7-1.8-0.7-2.8c0-1,0.2-2,0.7-2.8c0.5-0.8,1.1-1.5,1.9-2c0.8-0.5,1.7-0.7,2.7-0.7
		c0.8,0,1.5,0.2,2.1,0.5c0.6,0.3,1.2,0.8,1.5,1.4c0.4,0.6,0.6,1.3,0.6,2v3.2c0,0.8-0.3,1.4-0.6,2c-0.4,0.6-0.9,1.1-1.5,1.4
		C288.9,181.5,288.2,181.7,287.4,181.7z M287.7,179.8c1,0,1.8-0.3,2.4-1c0.6-0.7,0.9-1.6,0.9-2.6c0-0.7-0.1-1.4-0.4-1.9
		c-0.3-0.5-0.7-1-1.2-1.3c-0.5-0.3-1.1-0.5-1.8-0.5c-0.7,0-1.3,0.2-1.8,0.5c-0.5,0.3-0.9,0.7-1.2,1.3c-0.3,0.5-0.4,1.2-0.4,1.9
		c0,0.7,0.1,1.3,0.4,1.9c0.3,0.5,0.7,1,1.2,1.3C286.5,179.7,287.1,179.8,287.7,179.8z M290.9,181.5v-2.9l0.4-2.6l-0.4-2.6v-2.6h2
		v10.6H290.9z M297.5,181.5v-15h2v15H297.5z M294.9,172.7v-1.8h7.2v1.8H294.9z M304.1,181.5v-10.6h2v10.6H304.1z M305.1,168.8
		c-0.4,0-0.7-0.1-0.9-0.4c-0.2-0.3-0.4-0.6-0.4-0.9c0-0.4,0.1-0.7,0.4-0.9c0.2-0.3,0.5-0.4,0.9-0.4c0.4,0,0.7,0.1,0.9,0.4
		c0.2,0.2,0.4,0.5,0.4,0.9c0,0.4-0.1,0.7-0.4,0.9C305.7,168.7,305.4,168.8,305.1,168.8z M312.4,181.7c-0.6,0-1.2-0.1-1.7-0.2
		c-0.5-0.2-1-0.4-1.4-0.7c-0.4-0.3-0.8-0.6-1.2-1l1.3-1.3c0.4,0.5,0.8,0.8,1.3,1.1c0.5,0.2,1.1,0.3,1.7,0.3c0.6,0,1.1-0.1,1.4-0.3
		c0.3-0.2,0.5-0.5,0.5-0.9c0-0.4-0.1-0.7-0.4-0.9c-0.3-0.2-0.6-0.4-1-0.5c-0.4-0.1-0.9-0.3-1.4-0.4c-0.5-0.1-0.9-0.3-1.4-0.6
		c-0.4-0.2-0.8-0.5-1.1-0.9c-0.3-0.4-0.4-0.9-0.4-1.5c0-0.6,0.2-1.2,0.5-1.6c0.3-0.5,0.7-0.8,1.3-1.1c0.6-0.3,1.2-0.4,2-0.4
		c0.8,0,1.6,0.1,2.2,0.4c0.7,0.3,1.2,0.7,1.6,1.3l-1.3,1.3c-0.3-0.4-0.7-0.7-1.1-0.9c-0.4-0.2-0.9-0.3-1.5-0.3c-0.6,0-1,0.1-1.3,0.3
		c-0.3,0.2-0.4,0.5-0.4,0.8c0,0.4,0.1,0.6,0.4,0.8c0.3,0.2,0.6,0.4,1,0.5c0.4,0.1,0.9,0.3,1.4,0.4c0.5,0.1,0.9,0.3,1.4,0.6
		c0.4,0.2,0.8,0.6,1,1c0.3,0.4,0.4,0.9,0.4,1.6c0,1-0.4,1.8-1.1,2.4C314.5,181.4,313.6,181.7,312.4,181.7z M318.6,181.5v-10.6h2
		v10.6H318.6z M319.6,168.8c-0.4,0-0.7-0.1-0.9-0.4c-0.2-0.3-0.4-0.6-0.4-0.9c0-0.4,0.1-0.7,0.4-0.9c0.2-0.3,0.5-0.4,0.9-0.4
		c0.4,0,0.7,0.1,0.9,0.4c0.2,0.2,0.4,0.5,0.4,0.9c0,0.4-0.1,0.7-0.4,0.9C320.2,168.7,319.9,168.8,319.6,168.8z M331,181.5v-6.2
		c0-0.8-0.3-1.5-0.8-2c-0.5-0.5-1.2-0.8-2-0.8c-0.5,0-1,0.1-1.4,0.4c-0.4,0.2-0.7,0.6-1,1c-0.2,0.4-0.4,0.9-0.4,1.4l-0.8-0.5
		c0-0.8,0.2-1.5,0.5-2.1c0.4-0.6,0.9-1.1,1.5-1.5c0.6-0.4,1.4-0.6,2.2-0.6c0.8,0,1.5,0.2,2.1,0.6c0.6,0.4,1.1,0.9,1.5,1.6
		c0.4,0.6,0.5,1.3,0.5,2.1v6.6H331z M323.5,181.5v-10.6h2v10.6H323.5z M340.1,186.1c-1.1,0-2.1-0.2-2.9-0.6c-0.8-0.4-1.5-1-2-1.7
		l1.3-1.3c0.4,0.5,0.9,1,1.5,1.2c0.6,0.3,1.3,0.4,2.1,0.4c1.1,0,1.9-0.3,2.6-0.9c0.6-0.6,1-1.3,1-2.3v-2.6l0.4-2.4l-0.4-2.4v-2.8h2
		v10.2c0,1-0.2,1.9-0.7,2.7c-0.5,0.8-1.1,1.4-2,1.8C342.2,185.9,341.2,186.1,340.1,186.1z M340.1,181.3c-1,0-1.8-0.2-2.6-0.7
		c-0.8-0.5-1.4-1.1-1.8-1.9c-0.4-0.8-0.7-1.7-0.7-2.7c0-1,0.2-1.9,0.7-2.7c0.4-0.8,1-1.4,1.8-1.9c0.8-0.5,1.6-0.7,2.6-0.7
		c0.8,0,1.6,0.2,2.2,0.5s1.1,0.8,1.5,1.4c0.4,0.6,0.6,1.3,0.6,2.1v2.8c0,0.8-0.3,1.5-0.6,2.1c-0.4,0.6-0.9,1-1.5,1.4
		C341.7,181.1,340.9,181.3,340.1,181.3z M340.5,179.4c0.7,0,1.2-0.1,1.7-0.4c0.5-0.3,0.9-0.7,1.2-1.2c0.3-0.5,0.4-1.1,0.4-1.8
		c0-0.7-0.1-1.3-0.4-1.8c-0.3-0.5-0.6-0.9-1.1-1.2c-0.5-0.3-1.1-0.4-1.7-0.4s-1.3,0.1-1.8,0.4c-0.5,0.3-0.9,0.7-1.2,1.2
		c-0.3,0.5-0.4,1.1-0.4,1.8s0.1,1.3,0.4,1.8c0.3,0.5,0.7,0.9,1.2,1.2C339.3,179.3,339.9,179.4,340.5,179.4z M360.7,181.7
		c-1.1,0-2.1-0.2-3.1-0.6c-1-0.4-1.8-1-2.5-1.7c-0.7-0.7-1.2-1.6-1.6-2.5c-0.4-1-0.6-2-0.6-3.1c0-1.1,0.2-2.2,0.6-3.1
		c0.4-1,0.9-1.8,1.6-2.5c0.7-0.7,1.5-1.3,2.5-1.7c1-0.4,2-0.6,3.1-0.6c1.2,0,2.3,0.2,3.2,0.6c0.9,0.4,1.7,1,2.5,1.7l-1.4,1.4
		c-0.5-0.5-1.1-1-1.8-1.3c-0.7-0.3-1.5-0.5-2.4-0.5c-0.8,0-1.6,0.1-2.3,0.4c-0.7,0.3-1.3,0.7-1.8,1.2c-0.5,0.5-0.9,1.2-1.2,1.9
		c-0.3,0.7-0.4,1.5-0.4,2.4c0,0.9,0.1,1.7,0.4,2.4c0.3,0.7,0.7,1.4,1.2,1.9c0.5,0.5,1.1,1,1.8,1.2c0.7,0.3,1.4,0.4,2.3,0.4
		c1,0,1.8-0.2,2.5-0.5c0.7-0.3,1.3-0.8,1.8-1.3l1.4,1.4c-0.7,0.7-1.6,1.3-2.5,1.7C362.9,181.5,361.9,181.7,360.7,181.7z
		 M368.6,181.5v-15.9h2v15.9H368.6z M378.5,181.7c-1.1,0-2-0.2-2.9-0.7c-0.8-0.5-1.5-1.2-2-2c-0.5-0.8-0.7-1.8-0.7-2.8
		c0-1,0.2-2,0.7-2.8c0.5-0.8,1.1-1.5,2-2c0.8-0.5,1.8-0.7,2.8-0.7c1,0,1.8,0.2,2.6,0.7c0.8,0.4,1.3,1.1,1.8,1.9
		c0.4,0.8,0.6,1.7,0.6,2.7c0,0.1,0,0.3,0,0.5c0,0.2,0,0.4-0.1,0.6h-8.9v-1.7h7.9l-0.7,0.6c0-0.7-0.1-1.3-0.4-1.8
		c-0.3-0.5-0.6-0.9-1.1-1.2c-0.5-0.3-1-0.4-1.7-0.4c-0.7,0-1.3,0.1-1.8,0.4c-0.5,0.3-0.9,0.7-1.2,1.2c-0.3,0.5-0.4,1.2-0.4,1.9
		c0,0.7,0.1,1.4,0.4,2c0.3,0.5,0.7,1,1.3,1.3c0.5,0.3,1.2,0.4,1.9,0.4c0.6,0,1.1-0.1,1.6-0.3c0.5-0.2,0.9-0.5,1.3-0.9l1.3,1.3
		c-0.5,0.6-1.1,1-1.9,1.4C380.1,181.6,379.3,181.7,378.5,181.7z M390,181.7c-1,0-1.8-0.2-2.6-0.7c-0.8-0.5-1.4-1.2-1.9-2
		c-0.4-0.8-0.7-1.8-0.7-2.8c0-1,0.2-2,0.7-2.8c0.5-0.8,1.1-1.5,1.9-2c0.8-0.5,1.7-0.7,2.7-0.7c0.8,0,1.5,0.2,2.1,0.5
		c0.6,0.3,1.2,0.8,1.5,1.4c0.4,0.6,0.6,1.3,0.6,2v3.2c0,0.8-0.3,1.4-0.6,2c-0.4,0.6-0.9,1.1-1.5,1.4
		C391.6,181.5,390.8,181.7,390,181.7z M390.4,179.8c1,0,1.8-0.3,2.4-1c0.6-0.7,0.9-1.6,0.9-2.6c0-0.7-0.1-1.4-0.4-1.9
		c-0.3-0.5-0.7-1-1.2-1.3c-0.5-0.3-1.1-0.5-1.8-0.5c-0.7,0-1.3,0.2-1.8,0.5c-0.5,0.3-0.9,0.7-1.2,1.3c-0.3,0.5-0.4,1.2-0.4,1.9
		c0,0.7,0.1,1.3,0.4,1.9c0.3,0.5,0.7,1,1.2,1.3C389.1,179.7,389.7,179.8,390.4,179.8z M393.6,181.5v-2.9l0.4-2.6l-0.4-2.6v-2.6h2
		v10.6H393.6z M406,181.5v-6.2c0-0.8-0.3-1.5-0.8-2c-0.5-0.5-1.2-0.8-2-0.8c-0.5,0-1,0.1-1.4,0.4c-0.4,0.2-0.7,0.6-1,1
		c-0.2,0.4-0.4,0.9-0.4,1.4l-0.8-0.5c0-0.8,0.2-1.5,0.5-2.1c0.4-0.6,0.9-1.1,1.5-1.5c0.6-0.4,1.4-0.6,2.2-0.6s1.5,0.2,2.1,0.6
		c0.6,0.4,1.1,0.9,1.5,1.6c0.4,0.6,0.5,1.3,0.5,2.1v6.6H406z M398.5,181.5v-10.6h2v10.6H398.5z M413.9,181.5l6.3-15.5h1.5l6.3,15.5
		h-2.3l-5.2-13.1h0.8l-5.2,13.1H413.9z M417,178v-1.8h8.1v1.8H417z M430.3,181.5v-10.6h2v10.6H430.3z M431.3,168.8
		c-0.4,0-0.7-0.1-0.9-0.4c-0.2-0.3-0.4-0.6-0.4-0.9c0-0.4,0.1-0.7,0.4-0.9c0.2-0.3,0.5-0.4,0.9-0.4c0.4,0,0.7,0.1,0.9,0.4
		c0.2,0.2,0.4,0.5,0.4,0.9c0,0.4-0.1,0.7-0.4,0.9C431.9,168.7,431.6,168.8,431.3,168.8z M435.2,181.5v-10.6h2v10.6H435.2z
		 M437.2,175.4l-0.8-0.3c0-1.4,0.3-2.4,0.9-3.2c0.6-0.8,1.5-1.2,2.7-1.2c0.5,0,1,0.1,1.4,0.3c0.4,0.2,0.8,0.5,1.2,0.9l-1.3,1.4
		c-0.2-0.2-0.5-0.4-0.7-0.5c-0.3-0.1-0.6-0.2-0.9-0.2c-0.7,0-1.4,0.2-1.8,0.7C437.5,173.8,437.2,174.5,437.2,175.4z M450.7,181.5
		v-12.2c0-0.8,0.2-1.5,0.5-2.1c0.3-0.6,0.8-1.1,1.4-1.4c0.6-0.3,1.3-0.5,2.1-0.5c0.6,0,1.1,0.1,1.6,0.3c0.4,0.2,0.9,0.5,1.2,0.9
		l-1.3,1.3c-0.2-0.2-0.4-0.4-0.6-0.5c-0.2-0.1-0.5-0.2-0.9-0.2c-0.6,0-1.1,0.2-1.5,0.6c-0.3,0.4-0.5,0.9-0.5,1.5v12.2H450.7z
		 M448.1,172.7v-1.8h8v1.8H448.1z M462.3,181.7c-1,0-2-0.2-2.8-0.7c-0.8-0.5-1.5-1.2-2-2c-0.5-0.8-0.7-1.8-0.7-2.8
		c0-1,0.2-1.9,0.7-2.8c0.5-0.8,1.2-1.5,2-2c0.8-0.5,1.8-0.7,2.8-0.7c1,0,2,0.2,2.8,0.7c0.8,0.5,1.5,1.1,2,2c0.5,0.8,0.7,1.8,0.7,2.8
		c0,1-0.2,2-0.7,2.8c-0.5,0.8-1.2,1.5-2,2C464.3,181.5,463.4,181.7,462.3,181.7z M462.3,179.8c0.7,0,1.3-0.2,1.8-0.5
		c0.5-0.3,0.9-0.7,1.2-1.3c0.3-0.5,0.4-1.2,0.4-1.9c0-0.7-0.2-1.3-0.5-1.8c-0.3-0.5-0.7-1-1.2-1.2c-0.5-0.3-1.1-0.5-1.8-0.5
		c-0.7,0-1.3,0.2-1.8,0.5c-0.5,0.3-0.9,0.7-1.2,1.2c-0.3,0.5-0.4,1.1-0.4,1.8c0,0.7,0.1,1.3,0.4,1.9c0.3,0.5,0.7,1,1.2,1.3
		C461.1,179.6,461.7,179.8,462.3,179.8z M470.1,181.5v-10.6h2v10.6H470.1z M472.1,175.4l-0.8-0.3c0-1.4,0.3-2.4,0.9-3.2
		c0.6-0.8,1.5-1.2,2.7-1.2c0.5,0,1,0.1,1.4,0.3c0.4,0.2,0.8,0.5,1.2,0.9l-1.3,1.4c-0.2-0.2-0.5-0.4-0.7-0.5
		c-0.3-0.1-0.6-0.2-0.9-0.2c-0.7,0-1.4,0.2-1.8,0.7C472.4,173.8,472.1,174.5,472.1,175.4z M484.5,181.5V166h2.1v15.5H484.5z
		 M485.9,181.5v-1.9h8.9v1.9H485.9z M485.9,174.5v-1.8h8.1v1.8H485.9z M485.9,167.9V166h8.8v1.9H485.9z M500.9,181.5l-4.9-10.6h2.2
		l3.9,8.9h-1.3l3.9-8.9h2.1l-4.9,10.6H500.9z M513.2,181.7c-1.1,0-2-0.2-2.9-0.7c-0.8-0.5-1.5-1.2-2-2c-0.5-0.8-0.7-1.8-0.7-2.8
		c0-1,0.2-2,0.7-2.8c0.5-0.8,1.1-1.5,2-2c0.8-0.5,1.8-0.7,2.8-0.7c1,0,1.8,0.2,2.6,0.7c0.8,0.4,1.3,1.1,1.8,1.9
		c0.4,0.8,0.6,1.7,0.6,2.7c0,0.1,0,0.3,0,0.5c0,0.2,0,0.4-0.1,0.6H509v-1.7h7.9l-0.7,0.6c0-0.7-0.1-1.3-0.4-1.8
		c-0.3-0.5-0.6-0.9-1.1-1.2c-0.5-0.3-1-0.4-1.7-0.4c-0.7,0-1.3,0.1-1.8,0.4s-0.9,0.7-1.2,1.2c-0.3,0.5-0.4,1.2-0.4,1.9
		c0,0.7,0.1,1.4,0.4,2c0.3,0.5,0.7,1,1.3,1.3c0.5,0.3,1.2,0.4,1.9,0.4c0.6,0,1.1-0.1,1.6-0.3c0.5-0.2,0.9-0.5,1.3-0.9l1.3,1.3
		c-0.5,0.6-1.1,1-1.9,1.4C514.8,181.6,514,181.7,513.2,181.7z M520.2,181.5v-10.6h2v10.6H520.2z M522.2,175.4l-0.8-0.3
		c0-1.4,0.3-2.4,0.9-3.2c0.6-0.8,1.5-1.2,2.7-1.2c0.5,0,1,0.1,1.4,0.3c0.4,0.2,0.8,0.5,1.2,0.9l-1.3,1.4c-0.2-0.2-0.5-0.4-0.7-0.5
		c-0.3-0.1-0.6-0.2-0.9-0.2c-0.7,0-1.4,0.2-1.8,0.7C522.4,173.8,522.2,174.5,522.2,175.4z M532.4,181.6l-4.6-10.7h2.2l3.4,8.4h-0.7
		l3.6-8.4h2.2l-4.9,10.7H532.4z M529.4,185.9l3.1-6.4l1.1,2.1l-2,4.3H529.4z M544.7,181.7c-1,0-2-0.2-2.8-0.7c-0.8-0.5-1.5-1.2-2-2
		c-0.5-0.8-0.7-1.8-0.7-2.8c0-1,0.2-1.9,0.7-2.8c0.5-0.8,1.2-1.5,2-2c0.8-0.5,1.8-0.7,2.8-0.7c1,0,2,0.2,2.8,0.7
		c0.8,0.5,1.5,1.1,2,2c0.5,0.8,0.7,1.8,0.7,2.8c0,1-0.2,2-0.7,2.8c-0.5,0.8-1.2,1.5-2,2C546.6,181.5,545.7,181.7,544.7,181.7z
		 M544.7,179.8c0.7,0,1.3-0.2,1.8-0.5c0.5-0.3,0.9-0.7,1.2-1.3c0.3-0.5,0.4-1.2,0.4-1.9c0-0.7-0.2-1.3-0.5-1.8
		c-0.3-0.5-0.7-1-1.2-1.2c-0.5-0.3-1.1-0.5-1.8-0.5s-1.3,0.2-1.8,0.5c-0.5,0.3-0.9,0.7-1.2,1.2c-0.3,0.5-0.4,1.1-0.4,1.8
		c0,0.7,0.1,1.3,0.4,1.9c0.3,0.5,0.7,1,1.2,1.3C543.4,179.6,544,179.8,544.7,179.8z M559.9,181.5v-6.2c0-0.8-0.3-1.5-0.8-2
		c-0.5-0.5-1.2-0.8-2-0.8c-0.5,0-1,0.1-1.4,0.4c-0.4,0.2-0.7,0.6-1,1c-0.2,0.4-0.4,0.9-0.4,1.4l-0.8-0.5c0-0.8,0.2-1.5,0.5-2.1
		c0.4-0.6,0.9-1.1,1.5-1.5c0.6-0.4,1.4-0.6,2.2-0.6c0.8,0,1.5,0.2,2.1,0.6c0.6,0.4,1.1,0.9,1.5,1.6c0.4,0.6,0.5,1.3,0.5,2.1v6.6
		H559.9z M552.4,181.5v-10.6h2v10.6H552.4z M569.6,181.7c-1.1,0-2-0.2-2.9-0.7c-0.8-0.5-1.5-1.2-2-2c-0.5-0.8-0.7-1.8-0.7-2.8
		c0-1,0.2-2,0.7-2.8c0.5-0.8,1.1-1.5,2-2c0.8-0.5,1.8-0.7,2.8-0.7c1,0,1.8,0.2,2.6,0.7c0.8,0.4,1.3,1.1,1.8,1.9
		c0.4,0.8,0.6,1.7,0.6,2.7c0,0.1,0,0.3,0,0.5c0,0.2,0,0.4-0.1,0.6h-8.9v-1.7h7.9l-0.7,0.6c0-0.7-0.1-1.3-0.4-1.8
		c-0.3-0.5-0.6-0.9-1.1-1.2c-0.5-0.3-1-0.4-1.7-0.4c-0.7,0-1.3,0.1-1.8,0.4c-0.5,0.3-0.9,0.7-1.2,1.2c-0.3,0.5-0.4,1.2-0.4,1.9
		c0,0.7,0.1,1.4,0.4,2c0.3,0.5,0.7,1,1.3,1.3c0.5,0.3,1.2,0.4,1.9,0.4c0.6,0,1.1-0.1,1.6-0.3c0.5-0.2,0.9-0.5,1.3-0.9l1.3,1.3
		c-0.5,0.6-1.1,1-1.9,1.4C571.2,181.6,570.4,181.7,569.6,181.7z"/>
	<g>
		<circle class="st1" cx="96" cy="112.4" r="54.9"/>
		<g>
			<defs>
				<path id="SVGID_1_" d="M96,57.6c30.3,0,54.8,24.5,54.8,54.8c0,30.3-24.5,54.8-54.8,54.8s-54.8-24.5-54.8-54.8
					C41.2,82.1,65.7,57.6,96,57.6 M96,36.5c-10.2,0-20.2,2-29.6,6c-9,3.8-17.2,9.3-24.1,16.3S29.8,73.8,26,82.8
					c-4,9.4-6,19.3-6,29.6s2,20.2,6,29.6c3.8,9,9.3,17.2,16.3,24.1c7,7,15.1,12.4,24.1,16.3c9.4,4,19.3,6,29.6,6s20.2-2,29.6-6
					c9-3.8,17.2-9.3,24.1-16.3c7-7,12.4-15.1,16.3-24.1c4-9.4,6-19.3,6-29.6s-2-20.2-6-29.6c-3.8-9-9.3-17.2-16.3-24.1
					c-7-7-15.1-12.4-24.1-16.3C116.2,38.5,106.2,36.5,96,36.5L96,36.5z"/>
			</defs>
			<clipPath id="SVGID_00000098208087947276581080000016784009551815023779_">
				<use xlink:href="#SVGID_1_"  style="overflow:visible;"/>
			</clipPath>
			<g style="clip-path:url(#SVGID_00000098208087947276581080000016784009551815023779_);">
				
					<image style="overflow:visible;" width="2000" height="1333" xlink:href="../../../../../../Design/Logo/v2/support/bg-marble-edit-2.jpg"  transform="matrix(0.1197 0 0 0.1197 -23.7076 32.6456)">
				</image>
				<g>
					<g>
						<defs>
							<rect id="SVGID_00000128460789969631683570000008508776849025974915_" x="-22.3" y="32.6" width="236.4" height="159.5"/>
						</defs>
						<clipPath id="SVGID_00000004515178119731433760000004836534595845662870_">
							<use xlink:href="#SVGID_00000128460789969631683570000008508776849025974915_"  style="overflow:visible;"/>
						</clipPath>
						<g style="clip-path:url(#SVGID_00000004515178119731433760000004836534595845662870_);">
							<g>
								<defs>
									<rect id="SVGID_00000112616118354870732150000013714385678122285212_" x="-27.3" y="27.6" width="246.4" height="169.5"/>
								</defs>
								<clipPath id="SVGID_00000174599946844056923930000013658136473580664484_">
									<use xlink:href="#SVGID_00000112616118354870732150000013714385678122285212_"  style="overflow:visible;"/>
								</clipPath>
								<g style="clip-path:url(#SVGID_00000174599946844056923930000013658136473580664484_);">
									
										<image style="overflow:visible;" width="514" height="354" xlink:href="B115448F9DC2F41B.jpg"  transform="matrix(0.48 0 0 0.48 -27.36 27.41)">
									</image>
								</g>
							</g>
						</g>
					</g>
				</g>
			</g>
		</g>
		<circle class="st4" cx="96" cy="112.4" r="76"/>
		<rect x="74.4" y="151.3" class="st5" width="40.1" height="5.1"/>
		<rect x="77.4" y="94.9" class="st5" width="37.1" height="5.1"/>
		<rect x="77.4" y="136.8" class="st5" width="37.1" height="5.1"/>
		
			<linearGradient id="SVGID_00000028323460502817897300000009903188791322412685_" gradientUnits="userSpaceOnUse" x1="57.6868" y1="59.1574" x2="49.236" y2="66.3222">
			<stop  offset="8.073434e-08" style="stop-color:#000000;stop-opacity:0.9"/>
			<stop  offset="1" style="stop-color:#000000;stop-opacity:0"/>
		</linearGradient>
		<path style="fill:url(#SVGID_00000028323460502817897300000009903188791322412685_);" d="M49.6,52.2L63,68.6c0,0-4.5,3.4-5.6,4.7
			c-1.1,1.3-15.1-14.6-15.1-14.6S47,53.9,49.6,52.2z"/>
		
			<linearGradient id="SVGID_00000082347152969239088320000014233938678770516631_" gradientUnits="userSpaceOnUse" x1="114.8344" y1="167.5819" x2="97.0144" y2="188.8925">
			<stop  offset="8.073434e-08" style="stop-color:#000000;stop-opacity:0.9"/>
			<stop  offset="1" style="stop-color:#000000;stop-opacity:0"/>
		</linearGradient>
		<path style="fill:url(#SVGID_00000082347152969239088320000014233938678770516631_);" d="M112.2,164.8L96,188.4c0,0,4.3,0,6.2-0.2
			c1.9-0.2,14.9-20.3,14.9-20.3L112.2,164.8z"/>
		
			<linearGradient id="SVGID_00000003079518426352752630000016050719937037536434_" gradientUnits="userSpaceOnUse" x1="112.648" y1="137.2652" x2="104.1743" y2="143.1899">
			<stop  offset="8.073434e-08" style="stop-color:#000000;stop-opacity:0.9"/>
			<stop  offset="1" style="stop-color:#000000;stop-opacity:0"/>
		</linearGradient>
		<polygon style="fill:url(#SVGID_00000003079518426352752630000016050719937037536434_);" points="106.5,136.8 102.9,141.9 
			112.8,141.9 112.1,136.2 		"/>
		
			<linearGradient id="SVGID_00000023254547797053558590000017594293861960602792_" gradientUnits="userSpaceOnUse" x1="112.4616" y1="95.5091" x2="104.1684" y2="101.3076">
			<stop  offset="8.073434e-08" style="stop-color:#000000;stop-opacity:0.9"/>
			<stop  offset="1" style="stop-color:#000000;stop-opacity:0"/>
		</linearGradient>
		<polygon style="fill:url(#SVGID_00000023254547797053558590000017594293861960602792_);" points="106.5,94.9 102.9,100 112.8,100 
			112.3,95 		"/>
		
			<linearGradient id="SVGID_00000063630794365345489090000008057049411909953446_" gradientUnits="userSpaceOnUse" x1="114.2342" y1="151.2668" x2="104.5171" y2="158.0608">
			<stop  offset="8.073434e-08" style="stop-color:#000000;stop-opacity:0.9"/>
			<stop  offset="1" style="stop-color:#000000;stop-opacity:0"/>
		</linearGradient>
		<polygon style="fill:url(#SVGID_00000063630794365345489090000008057049411909953446_);" points="106.6,151.3 102.9,156.4 
			114.5,156.4 114.5,151.3 		"/>
		<g>
			
				<linearGradient id="SVGID_00000139994247966690835060000009007234008798401469_" gradientUnits="userSpaceOnUse" x1="65.1109" y1="100.5903" x2="174.8643" y2="100.5903">
				<stop  offset="0" style="stop-color:#22C55E"/>
				<stop  offset="1" style="stop-color:#06B6D4"/>
			</linearGradient>
			<path style="fill:url(#SVGID_00000139994247966690835060000009007234008798401469_);" d="M71.8,79.5c0,0,3.4,3.7,10.7,5.3
				c0,0-5.8,10.2-2,17.2c3.8,7,9.7,12.6,10.7,13.2l-9.9,6.5c0,0-13.1-8.7-13.7-21.8S71.8,79.5,71.8,79.5z"/>
			
				<linearGradient id="SVGID_00000070083882404400549570000011543147026996122772_" gradientUnits="userSpaceOnUse" x1="65.1109" y1="176.3481" x2="174.8643" y2="176.3481">
				<stop  offset="0" style="stop-color:#22C55E"/>
				<stop  offset="1" style="stop-color:#06B6D4"/>
			</linearGradient>
			<path style="fill:url(#SVGID_00000070083882404400549570000011543147026996122772_);" d="M99.7,131.8c0,0,15.9,8.3,14.5,22.5
				c-1.4,14.2-7.7,24.8-12.9,33.6c-5.1,8.8-1.6,39.5,25.7,40c27.3,0.6,46,0,46,0s6.6-0.7,6.6-7.7s-7.2-9-7.2-9h-46.6
				c0,0-21.4-4.3-11.4-24s12.4-23.6,11.3-37.6c-1.1-14.1-15.6-25.2-15.6-25.2L99.7,131.8z"/>
		</g>
		
			<linearGradient id="SVGID_00000032629518113396638240000009734144040516685473_" gradientUnits="userSpaceOnUse" x1="83.3257" y1="19.1314" x2="83.3257" y2="154.861">
			<stop  offset="0" style="stop-color:#22C55E"/>
			<stop  offset="1" style="stop-color:#06B6D4"/>
		</linearGradient>
		<path style="fill:url(#SVGID_00000032629518113396638240000009734144040516685473_);" d="M64.1,152.5l12.9,6.7
			c0,0-1.7-14.8,7.3-21.1c9-6.3,32.8-20.9,37.1-31.3c4.3-10.4,4.4-24.7-10.6-33.1s-33.3-7.3-46.7-25.4c-7-9.5-7.2-16.3-7.2-21.8
			c0,0-0.1-6.4-6.7-6.4s-7.3,6.2-7.3,6.8c0,0.6,0.9,11.9,4.2,21.2c3.4,9.5,13.9,23.2,30.6,29.5c16.7,6.2,33.4,8.8,33.4,19.1
			s-11,16.2-17.6,20.5C86.8,121.4,66.4,133.8,64.1,152.5z"/>
	</g>
</g>
</svg>
